<?xml version="1.0" encoding="UTF-8"?>
<svg xmlns="http://www.w3.org/2000/svg" xmlns:xlink="http://www.w3.org/1999/xlink" width="20px" height="px" viewBox="0 0 20 20" version="1.1">
<g id="surface1">
<path style=" stroke:none;fill-rule:evenodd;fill:rgb(0%,43.137255%,80.784314%);fill-opacity:1;" d="M 0.0234375 0.00390625 L 20.007812 0.00390625 L 20.007812 20.054688 L 0.0234375 20.054688 Z M 0.0234375 0.00390625 "/>
<path style=" stroke:none;fill-rule:evenodd;fill:rgb(100%,100%,100%);fill-opacity:1;" d="M 1.828125 8.675781 L 1.445312 7.742188 L 1.0625 8.675781 Z M 20.003906 11.882812 L 18.976562 11.882812 C 18.875 11.882812 18.804688 11.886719 18.75 11.921875 C 18.691406 11.960938 18.667969 12.019531 18.667969 12.09375 C 18.667969 12.179688 18.71875 12.242188 18.792969 12.269531 C 18.851562 12.289062 18.914062 12.292969 19.007812 12.296875 L 19.3125 12.300781 C 19.617188 12.3125 19.824219 12.363281 19.949219 12.492188 C 19.96875 12.507812 19.984375 12.53125 20.003906 12.550781 Z M 20.003906 13.429688 C 19.863281 13.628906 19.597656 13.730469 19.238281 13.730469 L 18.15625 13.730469 L 18.15625 13.226562 L 19.234375 13.226562 C 19.339844 13.226562 19.417969 13.210938 19.460938 13.167969 C 19.5 13.132812 19.527344 13.082031 19.527344 13.015625 C 19.53125 12.945312 19.5 12.890625 19.460938 12.859375 C 19.417969 12.824219 19.359375 12.808594 19.261719 12.808594 C 18.734375 12.789062 18.078125 12.824219 18.078125 12.082031 C 18.078125 11.738281 18.292969 11.382812 18.882812 11.382812 L 20.003906 11.382812 L 20.003906 10.914062 L 18.960938 10.914062 C 18.648438 10.914062 18.421875 10.988281 18.257812 11.105469 L 18.257812 10.914062 L 16.722656 10.914062 C 16.476562 10.914062 16.191406 10.976562 16.050781 11.105469 L 16.050781 10.914062 L 13.308594 10.914062 L 13.308594 11.105469 C 13.089844 10.949219 12.722656 10.914062 12.550781 10.914062 L 10.742188 10.914062 L 10.742188 11.105469 C 10.566406 10.941406 10.183594 10.914062 9.949219 10.914062 L 7.925781 10.914062 L 7.460938 11.417969 L 7.027344 10.914062 L 4 10.914062 L 4 14.191406 L 6.96875 14.191406 L 7.449219 13.683594 L 7.898438 14.191406 L 9.726562 14.191406 L 9.726562 13.421875 L 9.90625 13.421875 C 10.148438 13.425781 10.4375 13.417969 10.6875 13.308594 L 10.6875 14.191406 L 12.199219 14.191406 L 12.199219 13.335938 L 12.273438 13.335938 C 12.363281 13.335938 12.375 13.34375 12.375 13.433594 L 12.375 14.191406 L 16.960938 14.191406 C 17.25 14.191406 17.554688 14.117188 17.722656 13.980469 L 17.722656 14.191406 L 19.179688 14.191406 C 19.480469 14.191406 19.777344 14.148438 20 14.039062 L 20 13.429688 Z M 17.761719 12.492188 C 17.871094 12.605469 17.929688 12.746094 17.929688 12.988281 C 17.929688 13.496094 17.613281 13.730469 17.046875 13.730469 L 15.953125 13.730469 L 15.953125 13.226562 L 17.042969 13.226562 C 17.152344 13.226562 17.226562 13.210938 17.273438 13.167969 C 17.3125 13.132812 17.339844 13.082031 17.339844 13.015625 C 17.339844 12.945312 17.308594 12.890625 17.269531 12.859375 C 17.226562 12.824219 17.167969 12.808594 17.070312 12.808594 C 16.546875 12.789062 15.886719 12.824219 15.886719 12.082031 C 15.886719 11.738281 16.101562 11.382812 16.691406 11.382812 L 17.816406 11.382812 L 17.816406 11.882812 L 16.789062 11.882812 C 16.683594 11.882812 16.617188 11.886719 16.5625 11.921875 C 16.5 11.960938 16.476562 12.019531 16.476562 12.09375 C 16.476562 12.179688 16.53125 12.242188 16.601562 12.269531 C 16.660156 12.289062 16.722656 12.292969 16.816406 12.296875 L 17.121094 12.304688 C 17.425781 12.3125 17.632812 12.363281 17.761719 12.492188 Z M 12.695312 12.347656 C 12.621094 12.390625 12.527344 12.394531 12.417969 12.394531 L 11.738281 12.394531 L 11.738281 11.867188 L 12.429688 11.867188 C 12.527344 11.867188 12.628906 11.871094 12.695312 11.910156 C 12.769531 11.949219 12.8125 12.019531 12.8125 12.121094 C 12.8125 12.222656 12.769531 12.300781 12.695312 12.347656 Z M 13.035156 12.636719 C 13.160156 12.683594 13.261719 12.765625 13.308594 12.835938 C 13.390625 12.949219 13.402344 13.058594 13.402344 13.265625 L 13.402344 13.730469 L 12.839844 13.730469 L 12.839844 13.433594 C 12.839844 13.292969 12.851562 13.085938 12.75 12.976562 C 12.667969 12.890625 12.542969 12.871094 12.339844 12.871094 L 11.738281 12.871094 L 11.738281 13.730469 L 11.175781 13.730469 L 11.175781 11.382812 L 12.46875 11.382812 C 12.753906 11.382812 12.960938 11.394531 13.144531 11.492188 C 13.320312 11.597656 13.433594 11.746094 13.433594 12.015625 C 13.433594 12.386719 13.183594 12.578125 13.035156 12.636719 Z M 13.746094 11.382812 L 15.617188 11.382812 L 15.617188 11.867188 L 14.304688 11.867188 L 14.304688 12.292969 L 15.585938 12.292969 L 15.585938 12.773438 L 14.304688 12.773438 L 14.304688 13.238281 L 15.617188 13.242188 L 15.617188 13.730469 L 13.746094 13.730469 Z M 9.957031 12.464844 L 9.230469 12.464844 L 9.230469 11.867188 L 9.964844 11.867188 C 10.167969 11.867188 10.308594 11.949219 10.308594 12.15625 C 10.308594 12.359375 10.171875 12.464844 9.957031 12.464844 Z M 8.671875 13.515625 L 7.8125 12.558594 L 8.671875 11.632812 Z M 6.445312 13.238281 L 5.066406 13.238281 L 5.066406 12.773438 L 6.296875 12.773438 L 6.296875 12.292969 L 5.066406 12.292969 L 5.066406 11.867188 L 6.472656 11.867188 L 7.085938 12.550781 Z M 10.910156 12.15625 C 10.910156 12.804688 10.421875 12.941406 9.929688 12.941406 L 9.230469 12.941406 L 9.230469 13.730469 L 8.140625 13.730469 L 7.449219 12.953125 L 6.730469 13.730469 L 4.507812 13.730469 L 4.507812 11.382812 L 6.765625 11.382812 L 7.457031 12.152344 L 8.171875 11.382812 L 9.964844 11.382812 C 10.410156 11.382812 10.910156 11.503906 10.910156 12.15625 Z M 10.292969 8.304688 C 10.214844 8.347656 10.125 8.351562 10.015625 8.351562 L 9.332031 8.351562 L 9.332031 7.832031 L 10.023438 7.832031 C 10.125 7.832031 10.226562 7.835938 10.292969 7.871094 C 10.363281 7.90625 10.410156 7.980469 10.410156 8.078125 C 10.410156 8.183594 10.367188 8.265625 10.292969 8.304688 Z M 15.15625 8.675781 L 14.769531 7.742188 L 14.382812 8.675781 Z M 6.089844 9.6875 L 5.515625 9.6875 L 5.511719 7.851562 L 4.699219 9.6875 L 4.207031 9.6875 L 3.386719 7.847656 L 3.386719 9.6875 L 2.246094 9.6875 L 2.03125 9.164062 L 0.863281 9.164062 L 0.644531 9.6875 L 0.0351562 9.6875 L 1.039062 7.339844 L 1.875 7.339844 L 2.828125 9.5625 L 2.828125 7.339844 L 3.746094 7.339844 L 4.480469 8.933594 L 5.15625 7.339844 L 6.089844 7.339844 Z M 8.382812 9.6875 L 6.507812 9.6875 L 6.507812 7.339844 L 8.382812 7.339844 L 8.382812 7.832031 L 7.070312 7.832031 L 7.070312 8.253906 L 8.351562 8.253906 L 8.351562 8.734375 L 7.070312 8.734375 L 7.070312 9.203125 L 8.382812 9.203125 Z M 11.027344 7.976562 C 11.027344 8.347656 10.777344 8.542969 10.632812 8.601562 C 10.753906 8.648438 10.859375 8.726562 10.910156 8.796875 C 10.988281 8.914062 11.003906 9.019531 11.003906 9.226562 L 11.003906 9.6875 L 10.4375 9.6875 L 10.433594 9.390625 C 10.433594 9.253906 10.449219 9.050781 10.34375 8.9375 C 10.261719 8.855469 10.140625 8.835938 9.9375 8.835938 L 9.332031 8.835938 L 9.332031 9.6875 L 8.773438 9.6875 L 8.773438 7.339844 L 10.0625 7.339844 C 10.347656 7.339844 10.5625 7.351562 10.742188 7.453125 C 10.921875 7.558594 11.027344 7.710938 11.027344 7.976562 Z M 11.925781 9.6875 L 11.355469 9.6875 L 11.355469 7.339844 L 11.925781 7.339844 Z M 18.570312 9.6875 L 17.773438 9.6875 L 16.710938 7.929688 L 16.710938 9.6875 L 15.570312 9.6875 L 15.351562 9.164062 L 14.183594 9.164062 L 13.972656 9.6875 L 13.316406 9.6875 C 13.042969 9.6875 12.695312 9.628906 12.5 9.429688 C 12.300781 9.230469 12.203125 8.960938 12.203125 8.53125 C 12.203125 8.183594 12.261719 7.867188 12.503906 7.617188 C 12.6875 7.429688 12.96875 7.339844 13.355469 7.339844 L 13.898438 7.339844 L 13.898438 7.84375 L 13.367188 7.84375 C 13.164062 7.84375 13.046875 7.875 12.933594 7.984375 C 12.839844 8.082031 12.773438 8.269531 12.773438 8.515625 C 12.773438 8.769531 12.824219 8.949219 12.929688 9.066406 C 13.015625 9.160156 13.171875 9.1875 13.320312 9.1875 L 13.570312 9.1875 L 14.363281 7.339844 L 15.203125 7.339844 L 16.152344 9.5625 L 16.152344 7.339844 L 17.011719 7.339844 L 17.996094 8.976562 L 17.996094 7.339844 L 18.570312 7.339844 Z M 0.0273438 10.152344 L 0.988281 10.152344 L 1.203125 9.628906 L 1.6875 9.628906 L 1.902344 10.152344 L 3.792969 10.152344 L 3.792969 9.75 L 3.960938 10.152344 L 4.9375 10.152344 L 5.105469 9.746094 L 5.105469 10.152344 L 9.796875 10.152344 L 9.796875 9.292969 L 9.886719 9.292969 C 9.949219 9.296875 9.96875 9.304688 9.96875 9.40625 L 9.96875 10.152344 L 12.394531 10.152344 L 12.394531 9.949219 C 12.589844 10.054688 12.894531 10.152344 13.292969 10.152344 L 14.316406 10.152344 L 14.535156 9.628906 L 15.019531 9.628906 L 15.230469 10.152344 L 17.199219 10.152344 L 17.199219 9.65625 L 17.496094 10.152344 L 19.070312 10.152344 L 19.070312 6.875 L 17.511719 6.875 L 17.511719 7.265625 L 17.292969 6.875 L 15.691406 6.875 L 15.691406 7.265625 L 15.492188 6.875 L 13.332031 6.875 C 12.96875 6.875 12.648438 6.925781 12.394531 7.066406 L 12.394531 6.875 L 10.902344 6.875 L 10.902344 7.066406 C 10.738281 6.921875 10.515625 6.875 10.269531 6.875 L 4.820312 6.875 L 4.453125 7.722656 L 4.078125 6.875 L 2.363281 6.875 L 2.363281 7.265625 L 2.171875 6.875 L 0.707031 6.875 L 0.0273438 8.429688 Z M 0.0273438 10.152344 "/>
</g>
</svg>
