<?xml version="1.0" encoding="UTF-8"?>
<svg xmlns="http://www.w3.org/2000/svg" xmlns:xlink="http://www.w3.org/1999/xlink" width="20px" height="px" viewBox="0 0 19 12" version="1.1">
<g id="surface1">
<path style=" stroke:none;fill-rule:evenodd;fill:rgb(87.058824%,17.254902%,11.372549%);fill-opacity:1;" d="M 7.261719 6.015625 C 7.261719 4.125 8.125 2.441406 9.464844 1.347656 C 8.476562 0.546875 7.226562 0.0625 5.867188 0.0625 C 2.664062 0.0625 0.0664062 2.730469 0.0664062 6.015625 C 0.0664062 9.300781 2.664062 11.96875 5.867188 11.96875 C 7.226562 11.96875 8.476562 11.484375 9.464844 10.683594 C 8.125 9.59375 7.261719 7.90625 7.261719 6.015625 Z M 7.261719 6.015625 "/>
<path style=" stroke:none;fill-rule:evenodd;fill:rgb(92.941176%,38.039216%,0%);fill-opacity:1;" d="M 7.261719 6.015625 C 7.261719 7.90625 8.125 9.59375 9.464844 10.683594 C 10.804688 9.59375 11.667969 7.90625 11.667969 6.015625 C 11.667969 4.125 10.804688 2.441406 9.464844 1.347656 C 8.125 2.4375 7.261719 4.125 7.261719 6.015625 Z M 7.261719 6.015625 "/>
<path style=" stroke:none;fill-rule:evenodd;fill:rgb(96.862745%,62.352941%,2.352941%);fill-opacity:1;" d="M 13.0625 0.0625 C 11.703125 0.0625 10.453125 0.546875 9.464844 1.347656 C 10.804688 2.4375 11.667969 4.125 11.667969 6.015625 C 11.667969 7.90625 10.804688 9.59375 9.464844 10.683594 C 10.453125 11.484375 11.703125 11.96875 13.0625 11.96875 C 16.265625 11.96875 18.863281 9.300781 18.863281 6.015625 C 18.863281 2.730469 16.265625 0.0625 13.0625 0.0625 Z M 19.273438 9.449219 L 19.273438 9.199219 L 19.191406 9.417969 L 19.105469 9.417969 L 19.023438 9.199219 L 19.023438 9.449219 L 18.941406 9.449219 L 18.941406 9.085938 L 19.058594 9.085938 L 19.148438 9.320312 L 19.234375 9.085938 L 19.355469 9.085938 L 19.355469 9.449219 Z M 18.675781 9.449219 L 18.675781 9.164062 L 18.5625 9.164062 L 18.5625 9.085938 L 18.871094 9.085938 L 18.871094 9.164062 L 18.757812 9.164062 L 18.757812 9.449219 Z M 18.675781 9.449219 "/>
<path style=" stroke:none;fill-rule:evenodd;fill:rgb(7.843137%,8.235294%,8.235294%);fill-opacity:1;" d="M 3.289062 5.917969 C 3.234375 5.863281 3.171875 5.820312 3.097656 5.789062 C 3.023438 5.757812 2.941406 5.742188 2.855469 5.742188 C 2.808594 5.742188 2.757812 5.746094 2.710938 5.753906 C 2.660156 5.761719 2.609375 5.777344 2.5625 5.800781 C 2.511719 5.820312 2.46875 5.847656 2.425781 5.886719 C 2.378906 5.921875 2.34375 5.96875 2.308594 6.023438 C 2.257812 5.9375 2.1875 5.867188 2.101562 5.816406 C 2.011719 5.769531 1.910156 5.742188 1.796875 5.742188 C 1.757812 5.742188 1.71875 5.746094 1.675781 5.753906 C 1.636719 5.761719 1.59375 5.773438 1.554688 5.789062 C 1.515625 5.808594 1.476562 5.832031 1.4375 5.863281 C 1.402344 5.894531 1.367188 5.929688 1.339844 5.976562 L 1.339844 5.785156 L 1.015625 5.785156 L 1.015625 7.363281 L 1.339844 7.363281 L 1.339844 6.488281 C 1.339844 6.421875 1.351562 6.363281 1.371094 6.308594 C 1.394531 6.257812 1.421875 6.214844 1.457031 6.179688 C 1.492188 6.144531 1.53125 6.117188 1.578125 6.097656 C 1.625 6.082031 1.675781 6.070312 1.726562 6.070312 C 1.835938 6.070312 1.921875 6.105469 1.984375 6.179688 C 2.042969 6.25 2.074219 6.351562 2.074219 6.484375 L 2.074219 7.363281 L 2.398438 7.363281 L 2.398438 6.488281 C 2.398438 6.421875 2.410156 6.363281 2.429688 6.308594 C 2.453125 6.257812 2.480469 6.214844 2.515625 6.179688 C 2.550781 6.144531 2.589844 6.117188 2.636719 6.097656 C 2.683594 6.082031 2.734375 6.070312 2.785156 6.070312 C 2.894531 6.070312 2.980469 6.105469 3.042969 6.179688 C 3.101562 6.25 3.132812 6.351562 3.132812 6.484375 L 3.132812 7.363281 L 3.460938 7.363281 L 3.460938 6.371094 C 3.460938 6.277344 3.445312 6.195312 3.414062 6.117188 C 3.386719 6.039062 3.34375 5.972656 3.289062 5.917969 Z M 18.621094 7.257812 L 18.621094 7.28125 L 18.652344 7.28125 C 18.65625 7.28125 18.664062 7.28125 18.664062 7.28125 C 18.667969 7.277344 18.671875 7.273438 18.671875 7.269531 C 18.671875 7.265625 18.667969 7.261719 18.664062 7.261719 C 18.664062 7.257812 18.65625 7.257812 18.652344 7.257812 Z M 18.652344 7.222656 C 18.671875 7.222656 18.6875 7.226562 18.695312 7.234375 C 18.707031 7.242188 18.710938 7.253906 18.710938 7.269531 C 18.710938 7.28125 18.707031 7.289062 18.699219 7.296875 C 18.691406 7.304688 18.683594 7.3125 18.667969 7.3125 L 18.710938 7.363281 L 18.664062 7.363281 L 18.628906 7.316406 L 18.621094 7.316406 L 18.621094 7.363281 L 18.582031 7.363281 L 18.582031 7.222656 Z M 18.644531 7.410156 C 18.660156 7.410156 18.675781 7.40625 18.6875 7.402344 C 18.703125 7.394531 18.714844 7.386719 18.722656 7.375 C 18.734375 7.363281 18.742188 7.351562 18.746094 7.339844 C 18.753906 7.324219 18.757812 7.308594 18.757812 7.292969 C 18.757812 7.277344 18.753906 7.261719 18.746094 7.246094 C 18.742188 7.234375 18.734375 7.222656 18.722656 7.210938 C 18.714844 7.199219 18.703125 7.191406 18.6875 7.1875 C 18.675781 7.179688 18.660156 7.175781 18.644531 7.175781 C 18.628906 7.175781 18.613281 7.179688 18.597656 7.1875 C 18.585938 7.191406 18.574219 7.199219 18.5625 7.210938 C 18.550781 7.222656 18.542969 7.234375 18.539062 7.246094 C 18.53125 7.261719 18.53125 7.277344 18.53125 7.292969 C 18.53125 7.308594 18.53125 7.324219 18.539062 7.339844 C 18.542969 7.351562 18.550781 7.363281 18.5625 7.375 C 18.574219 7.386719 18.585938 7.394531 18.597656 7.402344 C 18.613281 7.40625 18.628906 7.410156 18.644531 7.410156 Z M 18.644531 7.132812 C 18.664062 7.132812 18.6875 7.136719 18.707031 7.144531 C 18.726562 7.152344 18.742188 7.164062 18.757812 7.179688 C 18.773438 7.195312 18.785156 7.210938 18.792969 7.230469 C 18.800781 7.25 18.804688 7.269531 18.804688 7.292969 C 18.804688 7.316406 18.800781 7.335938 18.792969 7.355469 C 18.785156 7.375 18.773438 7.390625 18.757812 7.40625 C 18.742188 7.421875 18.726562 7.433594 18.707031 7.441406 C 18.6875 7.449219 18.664062 7.453125 18.644531 7.453125 C 18.621094 7.453125 18.597656 7.449219 18.578125 7.441406 C 18.558594 7.433594 18.542969 7.421875 18.527344 7.40625 C 18.511719 7.390625 18.503906 7.375 18.492188 7.355469 C 18.484375 7.335938 18.480469 7.316406 18.480469 7.292969 C 18.480469 7.269531 18.484375 7.25 18.492188 7.230469 C 18.503906 7.210938 18.511719 7.195312 18.527344 7.179688 C 18.542969 7.164062 18.558594 7.152344 18.578125 7.144531 C 18.597656 7.136719 18.621094 7.132812 18.644531 7.132812 Z M 12.167969 6.207031 C 12.210938 6.164062 12.261719 6.128906 12.320312 6.105469 C 12.378906 6.082031 12.441406 6.066406 12.511719 6.066406 C 12.585938 6.066406 12.65625 6.078125 12.722656 6.105469 C 12.785156 6.128906 12.839844 6.164062 12.882812 6.203125 L 13.046875 5.929688 C 12.984375 5.878906 12.917969 5.839844 12.839844 5.808594 C 12.738281 5.765625 12.628906 5.742188 12.511719 5.742188 C 12.390625 5.742188 12.28125 5.765625 12.179688 5.808594 C 12.078125 5.847656 11.992188 5.90625 11.917969 5.980469 C 11.84375 6.054688 11.789062 6.144531 11.746094 6.246094 C 11.703125 6.34375 11.683594 6.457031 11.683594 6.574219 C 11.683594 6.691406 11.703125 6.800781 11.746094 6.902344 C 11.789062 7.003906 11.84375 7.09375 11.917969 7.167969 C 11.992188 7.242188 12.078125 7.300781 12.179688 7.339844 C 12.28125 7.382812 12.390625 7.40625 12.511719 7.40625 C 12.628906 7.40625 12.738281 7.382812 12.839844 7.339844 C 12.917969 7.308594 12.984375 7.269531 13.046875 7.21875 L 12.882812 6.941406 C 12.839844 6.984375 12.785156 7.019531 12.722656 7.042969 C 12.65625 7.066406 12.585938 7.082031 12.511719 7.082031 C 12.441406 7.082031 12.378906 7.066406 12.320312 7.042969 C 12.261719 7.019531 12.210938 6.984375 12.167969 6.9375 C 12.125 6.894531 12.089844 6.839844 12.066406 6.78125 C 12.042969 6.71875 12.027344 6.648438 12.027344 6.574219 C 12.027344 6.5 12.042969 6.429688 12.066406 6.367188 C 12.089844 6.304688 12.125 6.253906 12.167969 6.207031 Z M 17.585938 6.773438 C 17.566406 6.835938 17.535156 6.890625 17.492188 6.933594 C 17.453125 6.980469 17.402344 7.015625 17.347656 7.042969 C 17.289062 7.066406 17.226562 7.078125 17.15625 7.078125 C 17.085938 7.078125 17.019531 7.066406 16.960938 7.039062 C 16.90625 7.011719 16.855469 6.976562 16.816406 6.929688 C 16.777344 6.886719 16.746094 6.832031 16.726562 6.769531 C 16.703125 6.707031 16.691406 6.644531 16.691406 6.574219 C 16.691406 6.503906 16.703125 6.441406 16.726562 6.378906 C 16.746094 6.316406 16.777344 6.261719 16.816406 6.21875 C 16.855469 6.171875 16.90625 6.136719 16.960938 6.109375 C 17.019531 6.082031 17.085938 6.066406 17.15625 6.066406 C 17.226562 6.066406 17.289062 6.082031 17.347656 6.105469 C 17.402344 6.132812 17.453125 6.167969 17.492188 6.214844 C 17.535156 6.257812 17.566406 6.3125 17.585938 6.371094 C 17.609375 6.433594 17.621094 6.5 17.621094 6.574219 C 17.621094 6.648438 17.609375 6.714844 17.585938 6.773438 Z M 17.601562 5.140625 L 17.601562 5.976562 C 17.546875 5.90625 17.480469 5.847656 17.402344 5.808594 C 17.320312 5.765625 17.226562 5.742188 17.117188 5.742188 C 17.007812 5.742188 16.90625 5.765625 16.816406 5.804688 C 16.722656 5.847656 16.640625 5.902344 16.570312 5.976562 C 16.5 6.050781 16.445312 6.136719 16.40625 6.238281 C 16.367188 6.339844 16.347656 6.453125 16.347656 6.574219 C 16.347656 6.695312 16.367188 6.804688 16.40625 6.90625 C 16.445312 7.007812 16.5 7.097656 16.570312 7.171875 C 16.640625 7.246094 16.722656 7.300781 16.816406 7.34375 C 16.90625 7.382812 17.007812 7.40625 17.117188 7.40625 C 17.226562 7.40625 17.320312 7.382812 17.402344 7.34375 C 17.480469 7.300781 17.546875 7.246094 17.601562 7.175781 L 17.601562 7.363281 L 17.9375 7.363281 L 17.9375 5.140625 Z M 16.03125 5.742188 C 15.9375 5.742188 15.851562 5.761719 15.777344 5.796875 C 15.699219 5.832031 15.636719 5.914062 15.585938 5.992188 L 15.585938 5.785156 L 15.28125 5.785156 L 15.28125 7.363281 L 15.589844 7.363281 L 15.589844 6.496094 C 15.589844 6.429688 15.597656 6.367188 15.617188 6.316406 C 15.632812 6.261719 15.660156 6.21875 15.691406 6.183594 C 15.722656 6.144531 15.761719 6.117188 15.808594 6.097656 C 15.851562 6.082031 15.902344 6.070312 15.953125 6.070312 C 15.996094 6.070312 16.039062 6.074219 16.085938 6.085938 C 16.109375 6.089844 16.132812 6.097656 16.152344 6.105469 L 16.253906 5.773438 C 16.226562 5.765625 16.199219 5.757812 16.171875 5.753906 C 16.128906 5.746094 16.082031 5.742188 16.03125 5.742188 Z M 11.363281 5.742188 C 11.269531 5.742188 11.183594 5.761719 11.109375 5.796875 C 11.03125 5.832031 10.96875 5.914062 10.917969 5.992188 L 10.917969 5.785156 L 10.613281 5.785156 L 10.613281 7.363281 L 10.921875 7.363281 L 10.921875 6.496094 C 10.921875 6.429688 10.929688 6.367188 10.949219 6.316406 C 10.964844 6.261719 10.992188 6.21875 11.023438 6.183594 C 11.054688 6.144531 11.09375 6.117188 11.140625 6.097656 C 11.183594 6.082031 11.234375 6.070312 11.285156 6.070312 C 11.328125 6.070312 11.371094 6.074219 11.417969 6.085938 C 11.441406 6.089844 11.464844 6.097656 11.484375 6.105469 L 11.585938 5.773438 C 11.558594 5.765625 11.53125 5.757812 11.503906 5.753906 C 11.460938 5.746094 11.414062 5.742188 11.363281 5.742188 Z M 8.332031 7.046875 C 8.277344 7.070312 8.222656 7.078125 8.171875 7.078125 C 8.136719 7.078125 8.105469 7.074219 8.074219 7.0625 C 8.046875 7.050781 8.019531 7.035156 8 7.011719 C 7.976562 6.988281 7.960938 6.957031 7.945312 6.921875 C 7.933594 6.882812 7.925781 6.835938 7.925781 6.785156 L 7.925781 6.097656 L 8.46875 6.097656 L 8.46875 5.785156 L 7.925781 5.785156 L 7.925781 5.304688 L 7.589844 5.304688 L 7.589844 5.785156 L 7.28125 5.785156 L 7.28125 6.097656 L 7.589844 6.097656 L 7.589844 6.792969 C 7.589844 7 7.636719 7.15625 7.734375 7.253906 C 7.832031 7.355469 7.96875 7.40625 8.144531 7.40625 C 8.242188 7.40625 8.328125 7.390625 8.40625 7.359375 C 8.457031 7.339844 8.503906 7.316406 8.550781 7.289062 L 8.433594 7 C 8.402344 7.019531 8.367188 7.035156 8.332031 7.046875 Z M 14.484375 6.773438 C 14.460938 6.835938 14.429688 6.890625 14.390625 6.933594 C 14.347656 6.980469 14.300781 7.015625 14.242188 7.042969 C 14.1875 7.066406 14.125 7.078125 14.054688 7.078125 C 13.980469 7.078125 13.917969 7.066406 13.859375 7.039062 C 13.800781 7.011719 13.753906 6.976562 13.714844 6.929688 C 13.671875 6.886719 13.644531 6.832031 13.621094 6.769531 C 13.601562 6.707031 13.589844 6.644531 13.589844 6.574219 C 13.589844 6.503906 13.601562 6.441406 13.621094 6.378906 C 13.644531 6.316406 13.671875 6.261719 13.714844 6.21875 C 13.753906 6.171875 13.800781 6.136719 13.859375 6.109375 C 13.917969 6.082031 13.980469 6.066406 14.054688 6.066406 C 14.125 6.066406 14.1875 6.082031 14.242188 6.105469 C 14.300781 6.132812 14.347656 6.167969 14.390625 6.214844 C 14.429688 6.257812 14.460938 6.3125 14.484375 6.371094 C 14.507812 6.433594 14.519531 6.5 14.519531 6.574219 C 14.519531 6.648438 14.507812 6.714844 14.484375 6.773438 Z M 14.496094 5.976562 C 14.445312 5.90625 14.378906 5.847656 14.296875 5.808594 C 14.21875 5.765625 14.125 5.742188 14.015625 5.742188 C 13.90625 5.742188 13.804688 5.765625 13.710938 5.804688 C 13.617188 5.847656 13.535156 5.902344 13.46875 5.976562 C 13.398438 6.050781 13.34375 6.136719 13.304688 6.238281 C 13.265625 6.339844 13.242188 6.453125 13.242188 6.574219 C 13.242188 6.695312 13.265625 6.804688 13.304688 6.90625 C 13.34375 7.007812 13.398438 7.097656 13.46875 7.171875 C 13.535156 7.246094 13.617188 7.300781 13.710938 7.34375 C 13.804688 7.382812 13.90625 7.40625 14.015625 7.40625 C 14.125 7.40625 14.21875 7.382812 14.296875 7.34375 C 14.378906 7.300781 14.445312 7.246094 14.496094 7.175781 L 14.496094 7.363281 L 14.832031 7.363281 L 14.832031 5.785156 L 14.496094 5.785156 Z M 9.097656 6.4375 C 9.105469 6.382812 9.121094 6.328125 9.140625 6.28125 C 9.164062 6.234375 9.191406 6.191406 9.222656 6.15625 C 9.257812 6.125 9.296875 6.097656 9.34375 6.078125 C 9.390625 6.058594 9.445312 6.050781 9.503906 6.050781 C 9.613281 6.050781 9.699219 6.082031 9.765625 6.152344 C 9.835938 6.21875 9.878906 6.316406 9.894531 6.4375 Z M 10.035156 5.972656 C 9.972656 5.898438 9.894531 5.84375 9.804688 5.804688 C 9.714844 5.761719 9.617188 5.742188 9.511719 5.742188 C 9.398438 5.742188 9.292969 5.761719 9.199219 5.804688 C 9.105469 5.84375 9.027344 5.898438 8.957031 5.972656 C 8.890625 6.046875 8.839844 6.132812 8.800781 6.234375 C 8.761719 6.339844 8.746094 6.449219 8.746094 6.574219 C 8.746094 6.699219 8.765625 6.8125 8.800781 6.914062 C 8.839844 7.015625 8.894531 7.105469 8.964844 7.175781 C 9.035156 7.25 9.117188 7.304688 9.214844 7.34375 C 9.308594 7.386719 9.417969 7.40625 9.53125 7.40625 C 9.648438 7.40625 9.761719 7.386719 9.867188 7.355469 C 9.972656 7.324219 10.070312 7.265625 10.164062 7.183594 L 10 6.9375 C 9.933594 6.988281 9.863281 7.03125 9.785156 7.058594 C 9.707031 7.089844 9.628906 7.101562 9.554688 7.101562 C 9.5 7.101562 9.445312 7.09375 9.394531 7.078125 C 9.34375 7.066406 9.300781 7.039062 9.257812 7.007812 C 9.21875 6.976562 9.183594 6.933594 9.15625 6.882812 C 9.125 6.832031 9.105469 6.773438 9.09375 6.699219 L 10.234375 6.699219 C 10.234375 6.679688 10.238281 6.660156 10.238281 6.636719 C 10.238281 6.617188 10.238281 6.59375 10.238281 6.570312 C 10.238281 6.449219 10.222656 6.335938 10.183594 6.234375 C 10.148438 6.132812 10.101562 6.046875 10.035156 5.972656 Z M 6.890625 6.570312 C 6.796875 6.496094 6.667969 6.445312 6.496094 6.421875 L 6.339844 6.394531 C 6.304688 6.390625 6.269531 6.382812 6.238281 6.378906 C 6.207031 6.371094 6.179688 6.359375 6.160156 6.347656 C 6.136719 6.335938 6.117188 6.320312 6.105469 6.300781 C 6.089844 6.285156 6.085938 6.261719 6.085938 6.234375 C 6.085938 6.175781 6.109375 6.132812 6.160156 6.097656 C 6.210938 6.0625 6.285156 6.046875 6.375 6.046875 C 6.425781 6.046875 6.472656 6.050781 6.519531 6.058594 C 6.566406 6.066406 6.609375 6.078125 6.652344 6.089844 C 6.691406 6.105469 6.730469 6.117188 6.765625 6.136719 C 6.800781 6.152344 6.828125 6.164062 6.851562 6.179688 L 6.996094 5.910156 C 6.914062 5.859375 6.820312 5.816406 6.714844 5.789062 C 6.609375 5.757812 6.492188 5.746094 6.371094 5.746094 C 6.273438 5.746094 6.1875 5.757812 6.109375 5.78125 C 6.03125 5.804688 5.960938 5.835938 5.90625 5.878906 C 5.851562 5.925781 5.808594 5.976562 5.78125 6.039062 C 5.75 6.101562 5.738281 6.171875 5.738281 6.25 C 5.738281 6.378906 5.78125 6.480469 5.867188 6.558594 C 5.957031 6.640625 6.085938 6.691406 6.257812 6.714844 L 6.417969 6.734375 C 6.511719 6.75 6.578125 6.769531 6.621094 6.800781 C 6.664062 6.828125 6.6875 6.863281 6.6875 6.910156 C 6.6875 6.96875 6.65625 7.015625 6.597656 7.050781 C 6.539062 7.085938 6.453125 7.101562 6.335938 7.101562 C 6.273438 7.101562 6.214844 7.097656 6.167969 7.089844 C 6.117188 7.082031 6.070312 7.070312 6.03125 7.054688 C 5.988281 7.039062 5.953125 7.023438 5.917969 7.003906 C 5.886719 6.984375 5.855469 6.964844 5.828125 6.941406 L 5.671875 7.199219 C 5.726562 7.242188 5.785156 7.277344 5.847656 7.304688 C 5.910156 7.332031 5.96875 7.351562 6.027344 7.367188 C 6.085938 7.382812 6.140625 7.390625 6.195312 7.394531 C 6.246094 7.402344 6.292969 7.402344 6.332031 7.402344 C 6.441406 7.402344 6.542969 7.390625 6.628906 7.367188 C 6.714844 7.339844 6.789062 7.304688 6.847656 7.257812 C 6.910156 7.214844 6.953125 7.160156 6.984375 7.097656 C 7.015625 7.03125 7.03125 6.964844 7.03125 6.886719 C 7.03125 6.753906 6.984375 6.648438 6.890625 6.570312 Z M 5 6.773438 C 4.976562 6.835938 4.945312 6.890625 4.90625 6.933594 C 4.863281 6.980469 4.816406 7.015625 4.757812 7.042969 C 4.703125 7.066406 4.636719 7.082031 4.570312 7.082031 C 4.496094 7.082031 4.429688 7.066406 4.375 7.039062 C 4.316406 7.011719 4.269531 6.976562 4.226562 6.929688 C 4.1875 6.886719 4.15625 6.832031 4.136719 6.769531 C 4.113281 6.707031 4.105469 6.644531 4.105469 6.574219 C 4.105469 6.503906 4.117188 6.441406 4.136719 6.378906 C 4.15625 6.316406 4.1875 6.261719 4.226562 6.21875 C 4.269531 6.171875 4.316406 6.136719 4.375 6.109375 C 4.429688 6.082031 4.496094 6.066406 4.570312 6.066406 C 4.636719 6.066406 4.703125 6.082031 4.757812 6.105469 C 4.816406 6.132812 4.863281 6.167969 4.90625 6.214844 C 4.945312 6.257812 4.976562 6.3125 5 6.375 C 5.023438 6.433594 5.03125 6.5 5.03125 6.574219 C 5.03125 6.648438 5.023438 6.714844 5 6.773438 Z M 5.011719 5.976562 C 4.957031 5.90625 4.890625 5.847656 4.8125 5.808594 C 4.734375 5.765625 4.640625 5.742188 4.527344 5.742188 C 4.421875 5.742188 4.320312 5.765625 4.226562 5.804688 C 4.132812 5.847656 4.050781 5.902344 3.980469 5.976562 C 3.914062 6.050781 3.859375 6.136719 3.816406 6.238281 C 3.777344 6.34375 3.757812 6.453125 3.757812 6.574219 C 3.757812 6.695312 3.777344 6.804688 3.816406 6.90625 C 3.859375 7.007812 3.914062 7.097656 3.980469 7.171875 C 4.050781 7.246094 4.132812 7.300781 4.226562 7.34375 C 4.320312 7.382812 4.421875 7.40625 4.527344 7.40625 C 4.640625 7.40625 4.734375 7.382812 4.8125 7.34375 C 4.890625 7.300781 4.957031 7.246094 5.011719 7.175781 L 5.011719 7.363281 L 5.347656 7.363281 L 5.347656 5.785156 L 5.011719 5.785156 Z M 5.011719 5.976562 "/>
</g>
</svg>
