<?xml version="1.0" encoding="UTF-8"?>
<svg xmlns="http://www.w3.org/2000/svg" xmlns:xlink="http://www.w3.org/1999/xlink" width="20px" height="px" viewBox="0 0 19 7" version="1.1">
<g id="surface1">
<path style=" stroke:none;fill-rule:evenodd;fill:rgb(22.745098%,21.568627%,20.392157%);fill-opacity:1;" d="M 0.152344 6.011719 L 0.292969 6.011719 L 0.160156 6.589844 C 0.140625 6.671875 0.144531 6.738281 0.171875 6.78125 C 0.199219 6.824219 0.25 6.84375 0.324219 6.84375 C 0.394531 6.84375 0.457031 6.824219 0.503906 6.78125 C 0.550781 6.738281 0.582031 6.671875 0.605469 6.589844 L 0.738281 6.011719 L 0.882812 6.011719 L 0.746094 6.601562 C 0.71875 6.730469 0.664062 6.824219 0.589844 6.890625 C 0.511719 6.953125 0.414062 6.984375 0.292969 6.984375 C 0.171875 6.984375 0.0859375 6.957031 0.0429688 6.890625 C -0.00390625 6.828125 -0.0117188 6.730469 0.015625 6.605469 Z M 17.285156 6.960938 L 17.503906 6.011719 L 17.996094 6.011719 L 17.96875 6.144531 L 17.617188 6.144531 L 17.5625 6.382812 L 17.914062 6.382812 L 17.882812 6.515625 L 17.53125 6.515625 L 17.460938 6.820312 L 17.8125 6.820312 L 17.78125 6.960938 Z M 17.273438 6.242188 C 17.242188 6.203125 17.203125 6.175781 17.164062 6.160156 C 17.121094 6.140625 17.078125 6.132812 17.023438 6.132812 C 16.925781 6.132812 16.84375 6.164062 16.765625 6.230469 C 16.6875 6.296875 16.640625 6.382812 16.613281 6.488281 C 16.589844 6.589844 16.601562 6.675781 16.644531 6.742188 C 16.6875 6.808594 16.757812 6.84375 16.847656 6.84375 C 16.898438 6.84375 16.949219 6.832031 17.003906 6.8125 C 17.054688 6.792969 17.105469 6.761719 17.160156 6.722656 L 17.121094 6.898438 C 17.074219 6.925781 17.027344 6.949219 16.976562 6.960938 C 16.925781 6.976562 16.878906 6.984375 16.824219 6.984375 C 16.757812 6.984375 16.695312 6.972656 16.644531 6.949219 C 16.589844 6.925781 16.546875 6.890625 16.515625 6.84375 C 16.480469 6.796875 16.460938 6.742188 16.453125 6.683594 C 16.441406 6.621094 16.445312 6.554688 16.460938 6.484375 C 16.476562 6.414062 16.503906 6.351562 16.542969 6.289062 C 16.578125 6.226562 16.625 6.175781 16.679688 6.128906 C 16.734375 6.082031 16.792969 6.046875 16.855469 6.023438 C 16.917969 6 16.980469 5.988281 17.046875 5.988281 C 17.097656 5.988281 17.148438 5.996094 17.191406 6.011719 C 17.234375 6.027344 17.273438 6.050781 17.3125 6.085938 Z M 15.867188 6.585938 L 16.113281 6.585938 L 16.074219 6.371094 C 16.070312 6.355469 16.070312 6.339844 16.070312 6.320312 C 16.066406 6.304688 16.066406 6.285156 16.066406 6.261719 C 16.058594 6.285156 16.050781 6.304688 16.039062 6.320312 C 16.027344 6.339844 16.019531 6.359375 16.011719 6.371094 Z M 16.183594 6.960938 L 16.136719 6.714844 L 15.785156 6.714844 L 15.628906 6.960938 L 15.476562 6.960938 L 16.128906 5.972656 L 16.332031 6.960938 Z M 14.992188 6.960938 L 15.207031 6.011719 L 15.703125 6.011719 L 15.671875 6.144531 L 15.324219 6.144531 L 15.269531 6.378906 L 15.617188 6.378906 L 15.585938 6.511719 L 15.238281 6.511719 L 15.136719 6.957031 L 14.992188 6.957031 Z M 14.5625 6.414062 L 14.589844 6.414062 C 14.667969 6.414062 14.71875 6.40625 14.75 6.386719 C 14.777344 6.367188 14.800781 6.332031 14.808594 6.285156 C 14.820312 6.234375 14.816406 6.195312 14.792969 6.171875 C 14.773438 6.152344 14.722656 6.140625 14.652344 6.140625 L 14.625 6.140625 Z M 14.527344 6.535156 L 14.429688 6.957031 L 14.296875 6.957031 L 14.511719 6.007812 L 14.714844 6.007812 C 14.773438 6.007812 14.816406 6.015625 14.847656 6.019531 C 14.878906 6.027344 14.902344 6.042969 14.921875 6.0625 C 14.941406 6.085938 14.957031 6.113281 14.964844 6.148438 C 14.96875 6.1875 14.96875 6.226562 14.960938 6.269531 C 14.941406 6.347656 14.910156 6.40625 14.867188 6.449219 C 14.820312 6.492188 14.765625 6.515625 14.695312 6.527344 L 14.902344 6.957031 L 14.738281 6.957031 L 14.542969 6.535156 Z M 13.636719 6.960938 L 13.851562 6.011719 L 14.351562 6.011719 L 14.320312 6.144531 L 13.96875 6.144531 L 13.917969 6.382812 L 14.265625 6.382812 L 14.234375 6.515625 L 13.882812 6.515625 L 13.816406 6.820312 L 14.164062 6.820312 L 14.132812 6.960938 Z M 13.480469 6.140625 L 13.292969 6.957031 L 13.148438 6.957031 L 13.335938 6.140625 L 13.101562 6.140625 L 13.128906 6.007812 L 13.746094 6.007812 L 13.714844 6.140625 Z M 12.011719 6.960938 L 12.238281 5.972656 L 12.664062 6.554688 C 12.675781 6.570312 12.6875 6.585938 12.699219 6.605469 C 12.710938 6.625 12.722656 6.644531 12.734375 6.667969 L 12.886719 6.011719 L 13.019531 6.011719 L 12.792969 6.996094 L 12.355469 6.40625 C 12.34375 6.386719 12.332031 6.371094 12.324219 6.355469 C 12.3125 6.335938 12.300781 6.320312 12.296875 6.296875 L 12.144531 6.957031 L 12.011719 6.957031 Z M 11.660156 6.960938 L 11.875 6.011719 L 12.019531 6.011719 L 11.804688 6.960938 Z M 10.59375 6.769531 L 10.722656 6.714844 C 10.726562 6.753906 10.738281 6.789062 10.761719 6.808594 C 10.789062 6.832031 10.820312 6.84375 10.867188 6.84375 C 10.910156 6.84375 10.945312 6.832031 10.976562 6.804688 C 11.007812 6.777344 11.027344 6.746094 11.039062 6.703125 C 11.050781 6.648438 11.019531 6.597656 10.941406 6.554688 C 10.933594 6.546875 10.925781 6.542969 10.917969 6.542969 C 10.832031 6.488281 10.777344 6.445312 10.753906 6.402344 C 10.734375 6.359375 10.730469 6.308594 10.742188 6.25 C 10.761719 6.175781 10.796875 6.113281 10.859375 6.0625 C 10.921875 6.015625 10.988281 5.992188 11.070312 5.992188 C 11.136719 5.992188 11.1875 6.003906 11.226562 6.03125 C 11.261719 6.054688 11.285156 6.097656 11.289062 6.144531 L 11.164062 6.207031 C 11.152344 6.175781 11.140625 6.15625 11.121094 6.140625 C 11.101562 6.128906 11.082031 6.121094 11.054688 6.121094 C 11.015625 6.121094 10.980469 6.132812 10.953125 6.152344 C 10.925781 6.175781 10.910156 6.203125 10.898438 6.238281 C 10.886719 6.296875 10.925781 6.351562 11.011719 6.398438 C 11.019531 6.40625 11.023438 6.40625 11.027344 6.410156 C 11.105469 6.453125 11.15625 6.492188 11.179688 6.535156 C 11.203125 6.578125 11.207031 6.628906 11.195312 6.691406 C 11.171875 6.78125 11.128906 6.851562 11.066406 6.90625 C 11 6.957031 10.921875 6.984375 10.832031 6.984375 C 10.757812 6.984375 10.699219 6.96875 10.660156 6.929688 C 10.613281 6.890625 10.59375 6.835938 10.59375 6.769531 Z M 10.445312 6.140625 L 10.257812 6.957031 L 10.113281 6.957031 L 10.300781 6.140625 L 10.066406 6.140625 L 10.09375 6.007812 L 10.707031 6.007812 L 10.679688 6.140625 Z M 8.976562 6.960938 L 9.199219 5.972656 L 9.628906 6.554688 C 9.640625 6.570312 9.652344 6.585938 9.664062 6.605469 C 9.675781 6.625 9.6875 6.644531 9.699219 6.667969 L 9.851562 6.011719 L 9.984375 6.011719 L 9.757812 6.996094 L 9.320312 6.40625 C 9.308594 6.386719 9.296875 6.371094 9.285156 6.355469 C 9.273438 6.335938 9.265625 6.320312 9.257812 6.296875 L 9.109375 6.957031 L 8.976562 6.957031 Z M 8.316406 6.960938 L 8.53125 6.011719 L 9.027344 6.011719 L 8.996094 6.144531 L 8.648438 6.144531 L 8.59375 6.382812 L 8.941406 6.382812 L 8.910156 6.515625 L 8.5625 6.515625 L 8.492188 6.820312 L 8.839844 6.820312 L 8.808594 6.960938 Z M 8.074219 6.492188 C 8.074219 6.484375 8.078125 6.464844 8.082031 6.429688 C 8.085938 6.402344 8.085938 6.382812 8.089844 6.363281 C 8.082031 6.382812 8.070312 6.40625 8.058594 6.429688 C 8.050781 6.449219 8.035156 6.472656 8.019531 6.492188 L 7.671875 7 L 7.558594 6.484375 C 7.554688 6.464844 7.550781 6.441406 7.546875 6.421875 C 7.546875 6.40625 7.542969 6.382812 7.542969 6.363281 C 7.539062 6.382812 7.53125 6.40625 7.523438 6.429688 C 7.519531 6.449219 7.507812 6.472656 7.5 6.496094 L 7.296875 6.960938 L 7.160156 6.960938 L 7.597656 5.972656 L 7.722656 6.570312 C 7.722656 6.582031 7.726562 6.597656 7.730469 6.617188 C 7.730469 6.640625 7.734375 6.667969 7.738281 6.699219 C 7.753906 6.671875 7.777344 6.640625 7.804688 6.597656 C 7.808594 6.585938 7.816406 6.578125 7.820312 6.570312 L 8.210938 5.972656 L 8.199219 6.960938 L 8.066406 6.960938 L 8.078125 6.492188 Z M 6.703125 6.960938 L 6.800781 6.527344 L 6.621094 6.015625 L 6.769531 6.015625 L 6.882812 6.335938 C 6.886719 6.34375 6.890625 6.355469 6.894531 6.371094 C 6.898438 6.382812 6.898438 6.398438 6.90625 6.410156 C 6.914062 6.398438 6.921875 6.382812 6.929688 6.371094 C 6.941406 6.355469 6.949219 6.34375 6.957031 6.332031 L 7.222656 6.015625 L 7.367188 6.015625 L 6.945312 6.523438 L 6.847656 6.957031 L 6.703125 6.957031 Z M 6.03125 6.585938 L 6.277344 6.585938 L 6.234375 6.371094 C 6.234375 6.355469 6.230469 6.339844 6.230469 6.320312 C 6.230469 6.304688 6.230469 6.285156 6.230469 6.261719 C 6.21875 6.285156 6.210938 6.304688 6.199219 6.320312 C 6.191406 6.339844 6.183594 6.359375 6.171875 6.371094 Z M 6.34375 6.960938 L 6.296875 6.714844 L 5.945312 6.714844 L 5.785156 6.960938 L 5.636719 6.960938 L 6.289062 5.972656 L 6.492188 6.960938 Z M 5.4375 6.40625 L 5.472656 6.40625 C 5.550781 6.40625 5.609375 6.398438 5.640625 6.378906 C 5.671875 6.359375 5.691406 6.328125 5.703125 6.28125 C 5.714844 6.230469 5.707031 6.191406 5.683594 6.175781 C 5.660156 6.152344 5.609375 6.144531 5.535156 6.144531 L 5.5 6.144531 Z M 5.398438 6.535156 L 5.300781 6.960938 L 5.167969 6.960938 L 5.382812 6.011719 L 5.601562 6.011719 C 5.667969 6.011719 5.710938 6.015625 5.742188 6.023438 C 5.769531 6.03125 5.792969 6.042969 5.8125 6.0625 C 5.835938 6.082031 5.851562 6.113281 5.855469 6.148438 C 5.863281 6.1875 5.863281 6.226562 5.851562 6.273438 C 5.839844 6.316406 5.824219 6.359375 5.800781 6.398438 C 5.777344 6.433594 5.746094 6.464844 5.714844 6.488281 C 5.6875 6.503906 5.660156 6.515625 5.625 6.523438 C 5.59375 6.53125 5.546875 6.535156 5.480469 6.535156 Z M 4.050781 6.820312 L 4.171875 6.820312 C 4.238281 6.820312 4.289062 6.8125 4.328125 6.804688 C 4.363281 6.796875 4.394531 6.777344 4.421875 6.757812 C 4.464844 6.726562 4.5 6.6875 4.523438 6.640625 C 4.550781 6.597656 4.574219 6.542969 4.585938 6.480469 C 4.597656 6.421875 4.605469 6.371094 4.597656 6.324219 C 4.589844 6.28125 4.574219 6.238281 4.546875 6.210938 C 4.527344 6.1875 4.503906 6.171875 4.46875 6.164062 C 4.433594 6.152344 4.382812 6.148438 4.308594 6.148438 L 4.203125 6.148438 Z M 3.875 6.960938 L 4.089844 6.011719 L 4.285156 6.011719 C 4.414062 6.011719 4.5 6.019531 4.546875 6.03125 C 4.59375 6.046875 4.636719 6.066406 4.667969 6.101562 C 4.707031 6.144531 4.734375 6.199219 4.746094 6.261719 C 4.757812 6.328125 4.753906 6.402344 4.734375 6.484375 C 4.714844 6.570312 4.683594 6.640625 4.644531 6.707031 C 4.605469 6.773438 4.550781 6.824219 4.492188 6.867188 C 4.445312 6.902344 4.398438 6.921875 4.34375 6.9375 C 4.289062 6.949219 4.210938 6.957031 4.109375 6.957031 L 3.875 6.957031 Z M 3.214844 6.960938 L 3.429688 6.011719 L 3.925781 6.011719 L 3.894531 6.144531 L 3.546875 6.144531 L 3.492188 6.382812 L 3.839844 6.382812 L 3.808594 6.515625 L 3.460938 6.515625 L 3.390625 6.820312 L 3.738281 6.820312 L 3.707031 6.960938 Z M 2.863281 6.960938 L 3.082031 6.011719 L 3.226562 6.011719 L 3.007812 6.960938 Z M 2.207031 6.960938 L 2.425781 6.011719 L 2.921875 6.011719 L 2.890625 6.144531 L 2.539062 6.144531 L 2.488281 6.378906 L 2.835938 6.378906 L 2.804688 6.511719 L 2.453125 6.511719 L 2.351562 6.957031 L 2.207031 6.957031 Z M 1.859375 6.960938 L 2.074219 6.011719 L 2.21875 6.011719 L 2.003906 6.960938 Z M 0.859375 6.960938 L 1.085938 5.972656 L 1.515625 6.554688 C 1.527344 6.570312 1.539062 6.585938 1.550781 6.605469 C 1.5625 6.625 1.570312 6.644531 1.585938 6.667969 L 1.738281 6.011719 L 1.871094 6.011719 L 1.644531 6.996094 L 1.207031 6.40625 C 1.195312 6.386719 1.183594 6.371094 1.171875 6.355469 C 1.160156 6.335938 1.152344 6.320312 1.144531 6.296875 L 0.996094 6.957031 L 0.859375 6.957031 Z M 0.859375 6.960938 "/>
<path style=" stroke:none;fill-rule:evenodd;fill:rgb(44.313725%,42.745098%,41.568627%);fill-opacity:1;" d="M 14.660156 5.183594 L 13.667969 5.183594 L 15.046875 0 L 16.035156 0 Z M 6.421875 4.859375 C 6.371094 5.066406 6.1875 5.207031 5.984375 5.207031 L 0.878906 5.207031 C 0.738281 5.207031 0.632812 5.160156 0.566406 5.058594 C 0.496094 4.960938 0.480469 4.839844 0.523438 4.691406 L 1.769531 0.015625 L 2.761719 0.015625 L 1.648438 4.195312 L 5.609375 4.195312 L 6.722656 0.015625 L 7.714844 0.015625 Z M 14.144531 0.164062 C 14.078125 0.0625 13.96875 0.015625 13.824219 0.015625 L 8.382812 0.015625 L 8.113281 1.03125 L 13.066406 1.03125 L 12.777344 2.117188 L 8.8125 2.117188 L 8.8125 2.113281 L 7.824219 2.113281 L 7 5.207031 L 7.992188 5.207031 L 8.542969 3.132812 L 12.996094 3.132812 C 13.136719 3.132812 13.269531 3.082031 13.390625 2.984375 C 13.511719 2.886719 13.59375 2.761719 13.632812 2.617188 L 14.183594 0.542969 C 14.226562 0.386719 14.210938 0.261719 14.144531 0.164062 Z M 14.144531 0.164062 "/>
<path style=" stroke:none;fill-rule:evenodd;fill:rgb(5.490196%,52.54902%,20.784314%);fill-opacity:1;" d="M 17.746094 0.0078125 L 19 2.609375 L 16.367188 5.207031 L 16.679688 4.027344 L 18.121094 2.609375 L 17.433594 1.1875 Z M 17.746094 0.0078125 "/>
<path style=" stroke:none;fill-rule:evenodd;fill:rgb(91.372549%,44.705882%,3.137255%);fill-opacity:1;" d="M 16.867188 0.0078125 L 18.121094 2.609375 L 15.484375 5.207031 Z M 16.867188 0.0078125 "/>
</g>
</svg>
