<?xml version="1.0" encoding="UTF-8"?>
<svg xmlns="http://www.w3.org/2000/svg" xmlns:xlink="http://www.w3.org/1999/xlink" width="20px" height="px" viewBox="0 0 19 6" version="1.1">
<g id="surface1">
<path style=" stroke:none;fill-rule:evenodd;fill:rgb(9.803922%,11.764706%,43.921569%);fill-opacity:1;" d="M 6.734375 6.03125 L 7.695312 0.148438 L 9.234375 0.148438 L 8.273438 6.03125 Z M 13.84375 0.292969 C 13.539062 0.175781 13.0625 0.046875 12.46875 0.046875 C 10.949219 0.046875 9.878906 0.84375 9.871094 1.988281 C 9.863281 2.832031 10.632812 3.304688 11.21875 3.585938 C 11.816406 3.875 12.015625 4.058594 12.015625 4.316406 C 12.011719 4.707031 11.535156 4.890625 11.09375 4.890625 C 10.480469 4.890625 10.152344 4.800781 9.648438 4.582031 L 9.449219 4.488281 L 9.234375 5.804688 C 9.59375 5.96875 10.257812 6.109375 10.945312 6.117188 C 12.5625 6.117188 13.609375 5.328125 13.621094 4.109375 C 13.628906 3.4375 13.21875 2.929688 12.332031 2.511719 C 11.792969 2.238281 11.464844 2.058594 11.46875 1.78125 C 11.46875 1.535156 11.746094 1.277344 12.347656 1.277344 C 12.851562 1.265625 13.214844 1.382812 13.5 1.5 L 13.636719 1.570312 Z M 17.785156 0.15625 L 16.597656 0.15625 C 16.230469 0.15625 15.957031 0.257812 15.792969 0.644531 L 13.511719 6.03125 L 15.125 6.03125 C 15.125 6.03125 15.390625 5.308594 15.449219 5.148438 C 15.625 5.148438 17.191406 5.148438 17.417969 5.148438 C 17.464844 5.355469 17.605469 6.03125 17.605469 6.03125 L 19.03125 6.03125 Z M 15.890625 3.945312 C 16.019531 3.605469 16.503906 2.300781 16.503906 2.300781 C 16.496094 2.316406 16.628906 1.960938 16.707031 1.738281 L 16.8125 2.246094 C 16.8125 2.246094 17.105469 3.652344 17.167969 3.945312 Z M 5.445312 0.152344 L 3.941406 4.164062 L 3.78125 3.347656 C 3.5 2.410156 2.628906 1.390625 1.652344 0.882812 L 3.027344 6.023438 L 4.65625 6.023438 L 7.074219 0.152344 Z M 5.445312 0.152344 "/>
<path style=" stroke:none;fill-rule:evenodd;fill:rgb(96.862745%,71.372549%,0%);fill-opacity:1;" d="M 2.546875 0.148438 L 0.0664062 0.148438 L 0.046875 0.273438 C 1.976562 0.757812 3.253906 1.933594 3.78125 3.347656 L 3.242188 0.648438 C 3.148438 0.273438 2.878906 0.164062 2.546875 0.148438 Z M 2.546875 0.148438 "/>
</g>
</svg>
